<mxfile host="65bd71144e">
    <diagram id="CGz5gvUMxi6If3MVP1VV" name="image">
        <mxGraphModel dx="-1188" dy="1999" grid="1" gridSize="10" guides="1" tooltips="1" connect="1" arrows="1" fold="1" page="1" pageScale="1" pageWidth="827" pageHeight="1169" math="0" shadow="0">
            <root>
                <mxCell id="0"/>
                <mxCell id="1" parent="0"/>
                <mxCell id="124" value="" style="rounded=0;whiteSpace=wrap;html=1;fillColor=#eeeeee;fillStyle=auto;strokeColor=none;" vertex="1" parent="1">
                    <mxGeometry x="2540" y="-860" width="660" height="420" as="geometry"/>
                </mxCell>
                <mxCell id="96" value="" style="rounded=0;whiteSpace=wrap;html=1;fillColor=#eeeeee;fillStyle=auto;strokeColor=none;" vertex="1" parent="1">
                    <mxGeometry x="2660" y="-1020" width="520" height="120" as="geometry"/>
                </mxCell>
                <mxCell id="97" value="&lt;p style=&quot;margin: 4px 0px 0px; text-align: center;&quot;&gt;&lt;b style=&quot;background-color: initial;&quot;&gt;baseHandler&lt;/b&gt;&lt;br&gt;&lt;/p&gt;&lt;hr&gt;&lt;p style=&quot;border-color: var(--border-color); margin: 0px 0px 0px 8px;&quot;&gt;oauthContextFromName(string) *oauthContext&lt;/p&gt;&lt;p style=&quot;border-color: var(--border-color); margin: 0px 0px 0px 8px;&quot;&gt;oauthContext(*http.Request) (*oauthContext, error)&lt;/p&gt;" style="verticalAlign=top;align=left;overflow=fill;fontSize=12;fontFamily=Helvetica;html=1;" vertex="1" parent="1">
                    <mxGeometry x="2560" y="-840" width="300" height="70" as="geometry"/>
                </mxCell>
                <mxCell id="101" style="edgeStyle=orthogonalEdgeStyle;html=1;dashed=1;endArrow=block;endFill=1;exitX=0.5;exitY=0;exitDx=0;exitDy=0;" edge="1" parent="1" source="117" target="118">
                    <mxGeometry relative="1" as="geometry">
                        <mxPoint x="3100" y="-530" as="sourcePoint"/>
                        <mxPoint x="3220" y="-470" as="targetPoint"/>
                    </mxGeometry>
                </mxCell>
                <mxCell id="113" value="app" style="rounded=0;whiteSpace=wrap;html=1;fillColor=#eeeeee;fillStyle=auto;strokeColor=none;" vertex="1" parent="1">
                    <mxGeometry x="2660" y="-1040" width="120" height="20" as="geometry"/>
                </mxCell>
                <mxCell id="116" value="&lt;p style=&quot;margin: 4px 0px 0px; text-align: center;&quot;&gt;&lt;b style=&quot;background-color: initial;&quot;&gt;oauthContext&lt;/b&gt;&lt;br&gt;&lt;/p&gt;&lt;hr&gt;&lt;p style=&quot;border-color: var(--border-color); margin: 0px 0px 0px 8px;&quot;&gt;contextWithProxyTokenClaims(ctx context.Context, tokens *OAuthTokens, claims *OAuthClaims) context.Context&lt;/p&gt;&lt;p style=&quot;border-color: var(--border-color); margin: 0px 0px 0px 8px;&quot;&gt;validOauthClaims(ctx context.Context, tokens *OAuthTokens, opts ...validateOption) core.HTTPError&lt;/p&gt;&lt;p style=&quot;border-color: var(--border-color); margin: 0px 0px 0px 8px;&quot;&gt;validateAT(ctx context.Context, at string) (jwt.MapClaims, core.HTTPError)&lt;/p&gt;&lt;p style=&quot;border-color: var(--border-color); margin: 0px 0px 0px 8px;&quot;&gt;validateIDT(idt string, opts []validateOption) (jwt.MapClaims, core.HTTPError)&lt;/p&gt;" style="verticalAlign=top;align=left;overflow=fill;fontSize=12;fontFamily=Helvetica;html=1;" vertex="1" parent="1">
                    <mxGeometry x="2560" y="-560" width="620" height="100" as="geometry"/>
                </mxCell>
                <mxCell id="121" style="edgeStyle=orthogonalEdgeStyle;html=1;exitX=0.5;exitY=0;exitDx=0;exitDy=0;entryX=0.5;entryY=1;entryDx=0;entryDy=0;endArrow=block;endFill=1;" edge="1" parent="1" source="117" target="97">
                    <mxGeometry relative="1" as="geometry"/>
                </mxCell>
                <mxCell id="117" value="&lt;p style=&quot;margin: 4px 0px 0px; text-align: center;&quot;&gt;&lt;b&gt;resourceServerHandler&lt;/b&gt;&lt;/p&gt;&lt;hr&gt;&lt;p style=&quot;border-color: var(--border-color); margin: 0px 0px 0px 8px;&quot;&gt;&lt;br&gt;&lt;/p&gt;" style="verticalAlign=top;align=left;overflow=fill;fontSize=12;fontFamily=Helvetica;html=1;" vertex="1" parent="1">
                    <mxGeometry x="2840" y="-680" width="160" height="40" as="geometry"/>
                </mxCell>
                <mxCell id="118" value="&lt;p style=&quot;margin: 4px 0px 0px; text-align: center;&quot;&gt;&lt;i&gt;&amp;lt;&amp;lt;interface&amp;gt;&amp;gt;&lt;/i&gt;&lt;/p&gt;&lt;p style=&quot;margin: 4px 0px 0px; text-align: center;&quot;&gt;&lt;b&gt;AuthenticationHandler&lt;/b&gt;&lt;/p&gt;&lt;hr&gt;&lt;p style=&quot;margin:0px;margin-left:8px;&quot;&gt;ServeAuthn(http.ResponseWriter, *http.Request) (*http.Request, AuthResult, bool, error)&lt;br&gt;&lt;/p&gt;" style="verticalAlign=top;align=left;overflow=fill;fontSize=12;fontFamily=Helvetica;html=1;" vertex="1" parent="1">
                    <mxGeometry x="2680" y="-1000" width="480" height="80" as="geometry"/>
                </mxCell>
                <mxCell id="122" style="edgeStyle=orthogonalEdgeStyle;html=1;exitX=0.5;exitY=0;exitDx=0;exitDy=0;entryX=0.5;entryY=1;entryDx=0;entryDy=0;endArrow=block;endFill=1;" edge="1" parent="1" source="119" target="97">
                    <mxGeometry relative="1" as="geometry"/>
                </mxCell>
                <mxCell id="119" value="&lt;p style=&quot;margin: 4px 0px 0px; text-align: center;&quot;&gt;&lt;b&gt;authorizationCodeHandler&lt;/b&gt;&lt;/p&gt;&lt;hr&gt;&lt;p style=&quot;border-color: var(--border-color); margin: 0px 0px 0px 8px;&quot;&gt;&lt;br&gt;&lt;/p&gt;" style="verticalAlign=top;align=left;overflow=fill;fontSize=12;fontFamily=Helvetica;html=1;" vertex="1" parent="1">
                    <mxGeometry x="3010" y="-680" width="160" height="40" as="geometry"/>
                </mxCell>
                <mxCell id="120" style="edgeStyle=orthogonalEdgeStyle;html=1;dashed=1;endArrow=block;endFill=1;exitX=0.5;exitY=0;exitDx=0;exitDy=0;entryX=0.5;entryY=1;entryDx=0;entryDy=0;" edge="1" parent="1" source="119" target="118">
                    <mxGeometry relative="1" as="geometry">
                        <mxPoint x="2970" y="-750" as="sourcePoint"/>
                        <mxPoint x="2931.0285714285715" y="-910" as="targetPoint"/>
                    </mxGeometry>
                </mxCell>
                <mxCell id="123" value="embed" style="text;html=1;strokeColor=none;fillColor=none;align=center;verticalAlign=middle;whiteSpace=wrap;rounded=0;" vertex="1" parent="1">
                    <mxGeometry x="2760" y="-740" width="40" height="10" as="geometry"/>
                </mxCell>
                <mxCell id="125" value="app/authn/oauth" style="rounded=0;whiteSpace=wrap;html=1;fillColor=#eeeeee;fillStyle=auto;strokeColor=none;" vertex="1" parent="1">
                    <mxGeometry x="2540" y="-880" width="120" height="20" as="geometry"/>
                </mxCell>
            </root>
        </mxGraphModel>
    </diagram>
</mxfile>